<?xml version="1.0" encoding="utf-8"?>
<!-- Generator: Adobe Illustrator 22.1.0, SVG Export Plug-In . SVG Version: 6.00 Build 0)  -->
<svg version="1.1" id="Layer_1" xmlns="http://www.w3.org/2000/svg" xmlns:xlink="http://www.w3.org/1999/xlink" x="0px" y="0px"
	 viewBox="0 0 850.6 537.7" style="enable-background:new 0 0 850.6 537.7;" xml:space="preserve">
<style type="text/css">
	.st0{fill:#005ECE;}
	.st1{fill:url(#SVGID_1_);}
	.st2{fill:#00D9EF;}
	.st3{fill:#1099FF;}
	.st4{fill:url(#SVGID_2_);}
</style>
<g>
	<g>
		<path class="st0" d="M180.4,413.5h-12.9c-0.9,0-1.7,0.8-1.7,1.7v8.1c-4-4.3-12.9-11.8-26.3-11.8c-23.7,0-42.3,19.5-42.3,44.4
			c0,24.8,18.6,44.2,42.3,44.2c12.9,0,21.8-7.2,25.8-11.4v3.9c0,14-7,29-26.6,29c-5.1,0-17.6-1.2-22.7-12.8c-0.3-0.6-0.9-1-1.6-1
			h-14c-0.5,0-1,0.2-1.3,0.7c-0.3,0.4-0.4,0.9-0.3,1.5c4.2,17,19.9,28.1,39.9,28.1c26,0,43.4-18.2,43.4-45.3v-77.3
			C182.1,414.2,181.3,413.5,180.4,413.5z M165.3,455.9c0,15.4-11.8,28.3-25.8,28.3c-14.1,0-25.5-12.7-25.5-28.3
			c0-16.1,11.2-28.7,25.5-28.7C153.7,427.3,165.3,440.1,165.3,455.9z"/>
		<path class="st0" d="M216.7,385.3h-13.4c-0.9,0-1.7,0.8-1.7,1.7v15.9c0,0.9,0.8,1.7,1.7,1.7h13.4c0.9,0,1.7-0.8,1.7-1.7V387
			C218.4,386.1,217.7,385.3,216.7,385.3z"/>
		<path class="st0" d="M216.7,413.5h-13.4c-0.9,0-1.7,0.8-1.7,1.7v81c0,0.9,0.8,1.7,1.7,1.7h13.4c0.9,0,1.7-0.8,1.7-1.7v-81
			C218.4,414.2,217.7,413.5,216.7,413.5z"/>
		<path class="st0" d="M256.7,377.4h-13.4c-0.9,0-1.7,0.8-1.7,1.7v117.1c0,0.9,0.8,1.7,1.7,1.7h13.4c0.9,0,1.7-0.8,1.7-1.7V379.1
			C258.4,378.2,257.6,377.4,256.7,377.4z"/>
		<path class="st0" d="M314.7,411.4c-23.4,0-42.5,19.9-42.5,44.4c0,24.7,19,44,43.3,44c19.5,0,34-10.3,39.9-28.2
			c0.2-0.5,0.1-1.1-0.2-1.5c-0.3-0.4-0.8-0.7-1.4-0.7h-14.2c-0.7,0-1.3,0.4-1.5,1c-4.3,9.1-12.1,14-22.5,14
			c-11.2,0-23.6-8-26.1-23.3h66.2c0.9,0,1.7-0.8,1.7-1.7c0.1-14.1-4.7-26.7-13.5-35.5C336,415.8,325.6,411.4,314.7,411.4z
			 M290.6,445.6c4-12.2,15.1-18.6,24.2-18.6c10.7,0,20.2,7.4,23.8,18.6H290.6z"/>
		<path class="st0" d="M536,427.1c9.4,0,17.4,5.1,21.9,13.9c0.3,0.6,0.9,0.9,1.5,0.9h14.3c0.5,0,1.1-0.3,1.4-0.7
			c0.3-0.4,0.4-1,0.2-1.5c-5.9-17.4-21-28.2-39.4-28.2c-23.3,0-42.3,19.9-42.3,44.4c0,24.3,19,44,42.3,44
			c18.6,0,33.7-10.8,39.4-28.2c0.2-0.5,0.1-1.1-0.2-1.5c-0.3-0.4-0.8-0.7-1.4-0.7h-14.3c-0.6,0-1.2,0.4-1.5,0.9
			c-4.4,8.8-12.4,13.8-21.9,13.8c-14.1,0-25.5-12.7-25.5-28.3C510.5,440,521.9,427.1,536,427.1z"/>
		<path class="st0" d="M624.9,482.2L624.9,482.2c-5.7,0.3-10-0.8-12.8-3.4c-2.7-2.6-4.1-6.7-4.1-12.2v-37h16.7
			c0.9,0,1.7-0.8,1.7-1.7v-12.7c0-0.9-0.8-1.7-1.7-1.7H608v-15.6c0-0.9-0.8-1.7-1.7-1.7h-13.2c-0.9,0-1.7,0.8-1.7,1.7v15.6h-9.3
			c-0.9,0-1.7,0.8-1.7,1.7v12.7c0,0.9,0.8,1.7,1.7,1.7h9.3v37c0,10.6,3.3,19.2,9.6,24.8c5,4.5,11.7,6.8,19.4,6.8
			c1.6,0,3.2-0.1,4.8-0.3c0.9-0.1,1.5-0.8,1.5-1.7v-12.3c0-0.5-0.2-0.9-0.5-1.2C625.9,482.4,625.5,482.2,624.9,482.2z"/>
		<path class="st0" d="M677.1,411.4c-23.8,0-42.5,19.5-42.5,44.5c0,24.6,18.7,43.9,42.5,43.9c23.8,0,42.5-19.3,42.5-43.9
			C719.5,431,700.9,411.4,677.1,411.4z M702.7,455.9c0,15.5-11.5,28.2-25.7,28.2c-14.1,0-25.5-12.6-25.5-28.2
			c0-15.9,11.4-28.8,25.5-28.8C691.2,427.1,702.7,440,702.7,455.9z"/>
		<path class="st0" d="M772.5,411.6C772.5,411.6,772.5,411.6,772.5,411.6c-9.3-1-18.7,2-24.9,8.1v-4.5c0-0.9-0.8-1.7-1.7-1.7h-12.9
			c-0.9,0-1.7,0.8-1.7,1.7v81c0,0.9,0.8,1.7,1.7,1.7h13.4c0.9,0,1.7-0.8,1.7-1.7v-46.9c0-6.4,2.1-11.8,5.9-15.4
			c4.3-4.1,10.8-6.1,18.1-5.7c0.7,0.2,1.2-0.2,1.4-0.4c0.3-0.3,0.5-0.8,0.5-1.2v-13.2C774,412.4,773.3,411.7,772.5,411.6z
			 M772.4,427.6C772.4,427.6,772.4,427.6,772.4,427.6L772.4,427.6L772.4,427.6z"/>
		<path class="st0" d="M816.4,445.4c-17.1-2.7-19-4.8-19-8.7c0-5.4,7.3-9.6,16.7-9.6c9.7,0,16.2,4.3,17.8,11.7
			c0.2,0.8,0.9,1.3,1.7,1.3h13.5c0.5,0,0.9-0.2,1.3-0.6c0.3-0.4,0.5-0.8,0.4-1.3c-1.8-16.6-15.1-26.9-34.7-26.9
			c-23,0-33.5,13.4-33.5,25.8c0,16.4,12.7,21.6,33.1,24.5c19,2.6,20.6,6.3,20.6,10.9c0,5.7-6.4,11.5-18.6,11.5
			c-11.2,0-19.4-5.4-21-13.9c-0.1-0.8-0.8-1.4-1.7-1.4h-13.5c-0.5,0-1,0.2-1.3,0.6c-0.3,0.4-0.5,0.9-0.4,1.3
			c2.3,17.7,17.1,29.2,37.9,29.2c20.9,0,34.9-11.3,34.9-28.1C850.6,452.4,835.8,448.5,816.4,445.4z"/>
		<path class="st0" d="M84.9,415.1c0-0.9-0.8-1.7-1.7-1.7H70c-0.9,0-1.7,0.8-1.7,1.7v5.5c-7.3-5.8-16.4-9-25.8-9
			C18.7,411.5,0,431.1,0,456c0,24.6,18.7,43.9,42.5,43.9c9.4,0,18.5-3.2,25.8-8.9l0,5.9c0,0.5,0.2,0.9,0.5,1.2
			c0.3,0.3,0.8,0.5,1.2,0.5h13.3c0.4,0,0.9-0.2,1.2-0.5c0.3-0.3,0.5-0.8,0.5-1.2c0,0,0-16.9,0-28.7V415.1z M68.1,456
			c0,15.5-11.5,28.2-25.7,28.2C28.4,484.2,17,471.5,17,456c0-15.9,11.4-28.8,25.5-28.8C56.6,427.2,68.1,440.1,68.1,456z"/>
		<path class="st0" d="M483,415.1c0-0.9-0.8-1.7-1.7-1.7h-13.2c-0.9,0-1.7,0.8-1.7,1.7v5.5c-7.3-5.8-16.4-9-25.8-9
			c-23.8,0-42.5,19.6-42.5,44.5c0,24.6,18.7,43.9,42.5,43.9c9.4,0,18.5-3.2,25.8-8.9l0,5.9c0,0.5,0.2,0.9,0.5,1.2
			c0.3,0.3,0.8,0.5,1.2,0.5h13.3c0.4,0,0.9-0.2,1.2-0.5c0.3-0.3,0.5-0.8,0.5-1.2c0,0,0-16.9,0-28.7V415.1z M466.2,456
			c0,15.5-11.5,28.2-25.7,28.2c-14.1,0-25.5-12.6-25.5-28.2c0-15.9,11.4-28.8,25.5-28.8C454.7,427.2,466.2,440.1,466.2,456z"/>
	</g>
	<g>
		<linearGradient id="SVGID_1_" gradientUnits="userSpaceOnUse" x1="319.6129" y1="217.7576" x2="93.8524" y2="87.4147">
			<stop  offset="0" style="stop-color:#00D9EF"/>
			<stop  offset="0.9997" style="stop-color:#00ADC9"/>
		</linearGradient>
		<path class="st1" d="M236.8,321.1c-88.5,0-160.4-72-160.4-160.4S148.3,0.2,236.8,0.2c22.2,0,40.2,18,40.2,40.2s-18,40.2-40.2,40.2
			c-44.2,0-80.1,35.9-80.1,80.1c0,44.2,35.9,80.1,80.1,80.1c22.2,0,40.2,18,40.2,40.2S259,321.1,236.8,321.1z"/>
		<path class="st2" d="M357,316.9c-22.2,0-40.2-18-40.2-40.2V160.7c0-44.2-35.9-80.1-80.1-80.1c-22.2,0-40.2-18-40.2-40.2
			s18-40.2,40.2-40.2c88.5,0,160.4,72,160.4,160.4v116.1C397.2,298.9,379.2,316.9,357,316.9z"/>
		<g>
			<circle class="st3" cx="713.2" cy="281.1" r="39.6"/>
			<linearGradient id="SVGID_2_" gradientUnits="userSpaceOnUse" x1="675.6833" y1="217.8389" x2="449.5993" y2="87.3092">
				<stop  offset="0" style="stop-color:#3399FF"/>
				<stop  offset="1" style="stop-color:#005ECE"/>
			</linearGradient>
			<path class="st4" d="M592.7,321.3c-88.6,0-160.7-72.1-160.7-160.7S504.1,0,592.7,0c22.2,0,40.2,18,40.2,40.2s-18,40.2-40.2,40.2
				c-44.2,0-80.2,36-80.2,80.2c0,44.2,36,80.2,80.2,80.2c22.2,0,40.2,18,40.2,40.2S614.9,321.3,592.7,321.3z"/>
			<path class="st3" d="M713.2,200.9c-22.2,0-40.2-18-40.2-40.2c0-44.2-36-80.2-80.2-80.2c-22.2,0-40.2-18-40.2-40.2
				S570.5,0,592.7,0c88.6,0,160.6,72.1,160.6,160.6C753.4,182.9,735.4,200.9,713.2,200.9z"/>
		</g>
	</g>
</g>
</svg>
